<svg id="e619b257-2f87-4aa9-b686-4c3d4d0f0de0" data-name="レイヤー 1" xmlns="http://www.w3.org/2000/svg" viewBox="0 0 319 319"><defs><style>.a4d5454c-8855-4d42-9bf3-2cdfc9baa0f4{fill:#03e2a9;}.adc2399a-30ee-43c1-91b8-7c0705666b37{fill:#00c68b;}.e7bb8f9d-1a90-4b1d-9938-967412efb495{fill:#fff;}</style></defs><title>bookmarks</title><circle class="a4d5454c-8855-4d42-9bf3-2cdfc9baa0f4" cx="159.5" cy="159.5" r="159.5"/><path class="adc2399a-30ee-43c1-91b8-7c0705666b37" d="M272.28,46.72,46.72,272.28A159.5,159.5,0,0,0,272.28,46.72Z"/><path class="e7bb8f9d-1a90-4b1d-9938-967412efb495" d="M104.36,77.17h66.21q25.2.22,37.86,12.65T221.2,123a39.42,39.42,0,0,1-5,20.15,33.19,33.19,0,0,1-7.73,8.68A55.72,55.72,0,0,1,196,159.67v.47q14,3.63,21.1,14.64a48,48,0,0,1,6.68,24.73q-.24,22.16-13.83,35Q196.47,248,176.32,248h-72Zm25.9,23.08v48.87h37.38q14.19,0,20.86-7.38a23.21,23.21,0,0,0,6.8-17.11,24.38,24.38,0,0,0-6.8-17.46q-6.67-6.69-20.86-6.92Zm0,72v51.32h39.85q14.4-.22,21.09-7.85a25.89,25.89,0,0,0,6.68-17.81,26.22,26.22,0,0,0-6.68-18.05q-6.67-7.38-21.09-7.61Z"/></svg>