<svg id="hippo.svg" xmlns="http://www.w3.org/2000/svg" width="103.66" height="101.625" viewBox="0 0 103.66 101.625">
  <defs>
    <style>
      .cls-1 {
        fill: #00c68c;
      }

      .cls-1, .cls-2 {
        stroke: #f9f9f9;
        stroke-width: 7px;
      }

      .cls-1, .cls-2, .cls-4 {
        fill-rule: evenodd;
      }

      .cls-2 {
        fill: none;
      }

      .cls-3, .cls-4 {
        fill: #fff;
      }
    </style>
  </defs>
  <path id="シェイプ_2_のコピー" data-name="シェイプ 2 のコピー" class="cls-1" d="M1105.41,301.062h16.81a30,30,0,0,1,30,30v33.157a30,30,0,0,1-30,30h-16.81a30,30,0,0,1-30-30V331.062A30,30,0,0,1,1105.41,301.062Zm-20.8,45.583h40.66a22.62,22.62,0,0,1,22.62,22.618v1.842c0,12.492-9.4,22.895-21.89,22.895h-40c-12.49,0-24.01-10.4-24.01-22.895v-1.842A22.614,22.614,0,0,1,1084.61,346.645Zm73.09-47.04a27.949,27.949,0,0,1-19.72,34.248l-7.26-26.982m3.68-.991,19.62-5.284m-85.72-.991a27.949,27.949,0,0,0,19.72,34.248l7.26-26.982m-3.68-.991-19.62-5.284" transform="translate(-1058.5 -296.094)"/>
  <path id="角丸長方形_1_のコピー_2" data-name="角丸長方形 1 のコピー 2" class="cls-2" d="M1137,370.188a23.535,23.535,0,0,1-23.53,23.532" transform="translate(-1058.5 -296.094)"/>
  <circle id="楕円形_1" data-name="楕円形 1" class="cls-3" cx="23.095" cy="74.641" r="5.875"/>
  <path id="楕円形_1_のコピー" data-name="楕円形 1 のコピー" class="cls-4" d="M1117.87,364.844a5.891,5.891,0,1,1-5.87,5.89A5.883,5.883,0,0,1,1117.87,364.844Z" transform="translate(-1058.5 -296.094)"/>
  <circle id="楕円形_1_のコピー_2" data-name="楕円形 1 のコピー 2" class="cls-3" cx="33.42" cy="48.656" r="3.42"/>
  <circle id="楕円形_1_のコピー_3" data-name="楕円形 1 のコピー 3" class="cls-3" cx="64.185" cy="48.656" r="3.435"/>
</svg>
